IKResults
version=1
nRows=7
nColumns=67
inDegrees=yes

Units are S.I. units (second, meters, Newtons, ...)
Angles are in degrees.

endheader
time	pelvis_tilt	pelvis_list	pelvis_rotation	pelvis_tx	pelvis_ty	pelvis_tz	hip_flexion_r	hip_adduction_r	hip_rotation_r	knee_angle_r	knee_rot_r	knee_adduc_r	ankle_angle_r	ankle_rot_r	ankle_add_r	subtalar_angle_r	mtp_angle_r	mtp_rot_r	mtp_add_r	hip_flexion_l	hip_adduction_l	hip_rotation_l	knee_angle_l	knee_rot_l	knee_adduc_l	ankle_angle_l	ankle_rot_l	ankle_add_l	subtalar_angle_l	mtp_angle_l	mtp_rot_l	mtp_add_l	lumbar_extension	lumbar_bending	lumbar_rotation	neck_flexion	neck_lateral_bending	neck_rotation	arm_flex_r	arm_add_r	arm_rot_r	elbow_flex_r	elbow_rot_r	elbow_add_r	pro_sup_r	wrist_flex_r	wrist_adduc_r	wrist_rot_r	wrist_dev_r	hand_finger_flex_r	hand_finger_adduc_r	hand_finger_rot_r	arm_flex_l	arm_add_l	arm_rot_l	elbow_flex_l	elbow_rot_l	elbow_add_l	pro_sup_l	wrist_flex_l	wrist_adduc_l	wrist_rot_l	wrist_dev_l	hand_finger_flex_l	hand_finger_adduc_l	hand_finger_rot_l
      0.70000000	     16.93321416	     -0.41742968	      5.13704908	     -0.93325642	      0.73173175	      0.57701486	     10.26704295	      1.14116226	      3.54390931	    -27.13344954	     -5.00000000	      1.59661714	     -0.40906053	     -5.00000000	      5.00000000	     -8.26853321	     17.02969887	     -2.00000000	     -2.00000000	    -27.18847304	     -1.67428462	      2.45890573	    -41.80084696	      5.00000000	      1.41882777	     -3.90816585	     -0.91607356	      5.00000000	      6.49657028	     28.50742279	      2.00000000	     -2.00000000	    -28.01435184	      7.86880007	    -14.27589464	      0.00000000	      0.00000000	      0.00000000	      0.00000000	      0.00000000	      0.00000000	      0.00000000	      0.00000000	      0.00000000	     -0.00042092	      0.00000000	      0.00000000	      0.00000000	      0.00000000	      0.00000000	      0.00000000	      0.00000000	      0.00000000	      0.00000000	      0.00000000	      0.00000000	      0.00000000	      0.00000000	      0.00000000	      0.00000000	      0.00000000	      0.00000000	      0.00000000	      0.00000000	      0.00000000	      0.00000000
      0.70500000	     16.65369749	     -0.79465763	      5.84186996	     -0.92671196	      0.73203429	      0.57730140	     10.04445577	      1.75429033	      3.08269123	    -27.21257636	     -5.00000000	      1.38884086	     -0.09365413	     -5.00000000	      5.00000000	     -8.87686106	     16.58627992	     -2.00000000	     -2.00000000	    -25.50306870	     -2.40196519	      3.05955785	    -44.29724954	      5.00000000	      1.29852839	     -4.04653376	     -0.82569465	      5.00000000	      6.17433213	     28.95089341	      2.00000000	     -2.00000000	    -27.59933737	      8.39582059	    -14.71828557	      0.00000000	      0.00000000	      0.00000000	      0.00000000	      0.00000000	      0.00000000	      0.00000000	      0.00000000	      0.00000000	     -0.00042092	      0.00000000	      0.00000000	      0.00000000	      0.00000000	      0.00000000	      0.00000000	      0.00000000	      0.00000000	      0.00000000	      0.00000000	      0.00000000	      0.00000000	      0.00000000	      0.00000000	      0.00000000	      0.00000000	      0.00000000	      0.00000000	      0.00000000	      0.00000000	      0.00000000
      0.71000000	     16.52407135	     -1.12333390	      6.46067812	     -0.92029395	      0.73255678	      0.57751233	      9.56417466	      2.25542106	      2.91980321	    -27.11468697	     -5.00000000	      1.42165850	      0.36528425	     -5.00000000	      5.00000000	     -9.35222412	     16.19171019	     -2.00000000	     -2.00000000	    -23.99224657	     -3.02190395	      3.59858359	    -46.64938079	      5.00000000	      1.16933112	     -4.21831101	     -0.65589977	      5.00000000	      5.82311559	     29.27309189	      2.00000000	     -2.00000000	    -27.35009881	      8.88306586	    -15.07290693	      0.00000000	      0.00000000	      0.00000000	      0.00000000	      0.00000000	      0.00000000	      0.00000000	      0.00000000	      0.00000000	     -0.00042092	      0.00000000	      0.00000000	      0.00000000	      0.00000000	      0.00000000	      0.00000000	      0.00000000	      0.00000000	      0.00000000	      0.00000000	      0.00000000	      0.00000000	      0.00000000	      0.00000000	      0.00000000	      0.00000000	      0.00000000	      0.00000000	      0.00000000	      0.00000000	      0.00000000
      0.71500000	     16.29616288	     -1.34777932	      7.15165486	     -0.91416693	      0.73296216	      0.57764327	      9.21231363	      2.61757466	      2.56785059	    -27.02361885	     -5.00000000	      1.42310055	      0.60692317	     -5.00000000	      5.00000000	    -10.19044185	     15.52026432	     -2.00000000	     -2.00000000	    -22.26207372	     -3.54189823	      4.62757166	    -49.10194584	      5.00000000	      0.72222372	     -4.08896693	     -0.38626047	      5.00000000	      5.20647935	     29.70533033	      2.00000000	     -2.00000000	    -27.07263793	      9.24727836	    -15.43702599	      0.00000000	      0.00000000	      0.00000000	      0.00000000	      0.00000000	      0.00000000	      0.00000000	      0.00000000	      0.00000000	     -0.00042092	      0.00000000	      0.00000000	      0.00000000	      0.00000000	      0.00000000	      0.00000000	      0.00000000	      0.00000000	      0.00000000	      0.00000000	      0.00000000	      0.00000000	      0.00000000	      0.00000000	      0.00000000	      0.00000000	      0.00000000	      0.00000000	      0.00000000	      0.00000000	      0.00000000
      0.72000000	     16.25671410	     -1.55682586	      7.77334096	     -0.90783127	      0.73368347	      0.57790678	      8.49093755	      3.10775457	      2.58379858	    -26.66084751	     -5.00000000	      1.35057610	      1.19545303	     -5.00000000	      5.00000000	    -10.76124488	     15.11646997	     -2.00000000	     -2.00000000	    -20.84741676	     -3.95862182	      5.13615295	    -51.22971297	      5.00000000	      0.73262461	     -4.04069041	     -0.21887890	      5.00000000	      4.84039700	     29.92141519	      2.00000000	     -2.00000000	    -26.92363438	      9.53676646	    -15.73042530	      0.00000000	      0.00000000	      0.00000000	      0.00000000	      0.00000000	      0.00000000	      0.00000000	      0.00000000	      0.00000000	     -0.00042092	      0.00000000	      0.00000000	      0.00000000	      0.00000000	      0.00000000	      0.00000000	      0.00000000	      0.00000000	      0.00000000	      0.00000000	      0.00000000	      0.00000000	      0.00000000	      0.00000000	      0.00000000	      0.00000000	      0.00000000	      0.00000000	      0.00000000	      0.00000000	      0.00000000
      0.72500000	     16.25849045	     -1.73961017	      8.38101264	     -0.90173487	      0.73449551	      0.57786159	      7.70632705	      3.49289478	      2.47462725	    -26.22553991	     -5.00000000	      1.34178251	      1.68151354	     -5.00000000	      5.00000000	    -11.34064339	     14.83642543	     -2.00000000	     -2.00000000	    -19.42245388	     -4.27652209	      5.54257012	    -53.29814630	      5.00000000	      0.83146626	     -3.87681600	      0.00265222	      5.00000000	      4.43851365	     30.05156447	      2.00000000	     -2.00000000	    -26.84080450	      9.90197052	    -15.97343617	      0.00000000	      0.00000000	      0.00000000	      0.00000000	      0.00000000	      0.00000000	      0.00000000	      0.00000000	      0.00000000	     -0.00042092	      0.00000000	      0.00000000	      0.00000000	      0.00000000	      0.00000000	      0.00000000	      0.00000000	      0.00000000	      0.00000000	      0.00000000	      0.00000000	      0.00000000	      0.00000000	      0.00000000	      0.00000000	      0.00000000	      0.00000000	      0.00000000	      0.00000000	      0.00000000	      0.00000000
      0.73000000	     16.40920844	     -1.60265555	      8.61364202	     -0.89571791	      0.73565023	      0.57843309	      6.79124664	      3.73161767	      2.67562242	    -25.88803724	     -5.00000000	      1.09196367	      1.81546174	     -5.00000000	      5.00000000	    -11.40227282	     14.80393254	     -2.00000000	     -2.00000000	    -18.35252377	     -4.15830353	      5.50759737	    -54.98954600	      5.00000000	      1.10638051	     -3.84493901	      0.21424759	      5.00000000	      4.23016074	     30.06868693	      2.00000000	     -2.00000000	    -27.08013349	      9.58099152	    -15.82029853	      0.00000000	      0.00000000	      0.00000000	      0.00000000	      0.00000000	      0.00000000	      0.00000000	      0.00000000	      0.00000000	     -0.00042092	      0.00000000	      0.00000000	      0.00000000	      0.00000000	      0.00000000	      0.00000000	      0.00000000	      0.00000000	      0.00000000	      0.00000000	      0.00000000	      0.00000000	      0.00000000	      0.00000000	      0.00000000	      0.00000000	      0.00000000	      0.00000000	      0.00000000	      0.00000000	      0.00000000
